<svg id="Layer_1" data-name="Layer 1" xmlns="http://www.w3.org/2000/svg" viewBox="0 0 32 32"><defs><style>.cls-1{fill:#ba63c6;}</style></defs><title>Bold Purple</title><path class="cls-1" d="M9,15a3,3,0,1,0-3-3A3,3,0,0,0,9,15Z"/><path class="cls-1" d="M32,7.88c-.19-3-1.93-4.74-5-4.87H5C2,3,.13,4.88,0,8V24.08A4.78,4.78,0,0,0,4.87,29H27.13A4.86,4.86,0,0,0,32,24V8S32,7.92,32,7.88ZM5,7H26.91c.85,0,1,.12,1.09,1.07V18.17l-4.59-4.59a2,2,0,0,0-2.83,0L15,19.17l-1.59-1.59a2,2,0,0,0-2.83,0L4,24.16c0-.05,0-.1,0-.16V8.09C4,7,4.34,7,5,7ZM26.93,25H8.83L12,21.83l1.59,1.59a2,2,0,0,0,2.83,0l0,0L22,17.83l5.59,5.59a1.26,1.26,0,0,1,.42.5C28,24.67,27.81,24.93,26.93,25Z"/></svg>